<?xml version="1.0" encoding="UTF-8"?>
<svg version="1.1" xmlns="http://www.w3.org/2000/svg" width="512" height="512">
<path d="M0 0 C2.52213791 1.38127484 4.38080446 2.03858518 7.25390625 2.234375 C9.33740642 1.27014669 9.33740642 1.27014669 11.25390625 -0.328125 C29.11998758 -12.99306094 51.18984507 -16.41341127 72.62695312 -13.43603516 C88.75656018 -10.41816656 101.66309076 -2.3698629 111.17578125 10.91796875 C116.42939767 19.30202953 120.08298626 28.39271839 121.25390625 38.234375 C121.38667969 39.2553125 121.51945313 40.27625 121.65625 41.328125 C124.91137806 73.22106506 111.11803138 101.53391825 91.41796875 125.7421875 C81.44910283 137.76356405 70.56126959 148.61133371 58.25390625 158.234375 C57.20969586 159.07919679 56.16677865 159.92561886 55.125 160.7734375 C14.85508254 193.31191026 14.85508254 193.31191026 2.25390625 192.234375 C-0.97265625 190.765625 -0.97265625 190.765625 -4.37109375 188.734375 C-4.9837207 188.36981201 -5.59634766 188.00524902 -6.22753906 187.62963867 C-12.2049594 184.03653114 -18.03332002 180.23443394 -23.74609375 176.234375 C-24.76775635 175.52039551 -24.76775635 175.52039551 -25.81005859 174.79199219 C-35.86888862 167.72767476 -45.57409716 160.42165707 -54.74609375 152.234375 C-55.26929199 151.76757324 -55.79249023 151.30077148 -56.33154297 150.81982422 C-84.8183522 125.27482419 -108.97490177 93.82456875 -111.6484375 54.38134766 C-112.47100978 36.29709611 -107.40294699 18.31438666 -95.7578125 4.26171875 C-70.33238625 -21.36118654 -28.55753092 -18.74842978 0 0 Z " fill="#000000" transform="translate(250.74609375,249.765625)"/>
<path d="M0 0 C8.30764369 5.26389493 15.5514888 12.33426162 22.94921875 18.78515625 C26.57492195 21.9461886 30.22042022 25.08336655 33.875 28.2109375 C34.73605347 28.94824097 34.73605347 28.94824097 35.61450195 29.70043945 C37.34685581 31.1834707 39.07960709 32.66603617 40.8125 34.1484375 C48.63180603 40.83745424 56.43315546 47.54592506 64.20458984 54.29052734 C70.71604268 59.93850858 77.26250398 65.54525062 83.8125 71.1484375 C91.63180603 77.83745424 99.43315546 84.54592506 107.20458984 91.29052734 C113.14138478 96.44005499 119.10703455 101.55543984 125.07861328 106.66455078 C128.57602798 109.65769166 132.07016391 112.6546598 135.56494141 115.65087891 C138.46802183 118.13958041 141.3718367 120.62741302 144.27734375 123.11328125 C150.94018834 128.81571581 157.58121705 134.54229439 164.20458984 140.29052734 C170.14138478 145.44005499 176.10703455 150.55543984 182.07861328 155.66455078 C185.57602798 158.65769166 189.07016391 161.6546598 192.56494141 164.65087891 C195.46802183 167.13958041 198.3718367 169.62741302 201.27734375 172.11328125 C204.17831035 174.59545495 207.07521415 177.08232097 209.97119141 179.5703125 C211.93925303 181.25707335 213.91301063 182.93703871 215.88671875 184.6171875 C217.23714312 185.77324601 218.5874074 186.92949155 219.9375 188.0859375 C220.56519287 188.61759521 221.19288574 189.14925293 221.83959961 189.69702148 C228.01623195 195.00581385 232.22207933 200.00238042 233.8125 208.1484375 C234.19903252 215.28272337 232.36326959 220.67043335 227.8125 226.1484375 C223.83644355 230.24972408 219.70537622 232.80528253 213.98046875 233.484375 C202.67438711 233.63255431 197.560424 230.1637232 189.44921875 222.57421875 C186.81517145 220.15089524 184.09965577 217.89310033 181.3125 215.6484375 C176.84829543 212.03694616 172.58247886 208.26183056 168.33984375 204.39453125 C165.74287607 202.08656152 163.07845987 199.89287887 160.375 197.7109375 C155.60253797 193.85135147 151.08140891 189.77643759 146.56640625 185.62109375 C142.98042716 182.40134231 139.24548508 179.38938574 135.49609375 176.36328125 C132.86541443 174.19210923 130.33307576 171.94602393 127.8125 169.6484375 C124.39510628 166.53385082 120.9072765 163.5565713 117.3125 160.6484375 C112.84829543 157.03694616 108.58247886 153.26183056 104.33984375 149.39453125 C101.74287607 147.08656152 99.07845987 144.89287887 96.375 142.7109375 C91.60253797 138.85135147 87.08140891 134.77643759 82.56640625 130.62109375 C78.98042716 127.40134231 75.24548508 124.38938574 71.49609375 121.36328125 C68.00699084 118.48362863 64.68253079 115.44149874 61.33984375 112.39453125 C58.74287607 110.08656152 56.07845987 107.89287887 53.375 105.7109375 C48.60253797 101.85135147 44.08140891 97.77643759 39.56640625 93.62109375 C35.98042716 90.40134231 32.24548508 87.38938574 28.49609375 84.36328125 C25.86541443 82.19210923 23.33307576 79.94602393 20.8125 77.6484375 C16.52144841 73.73760567 12.07239544 70.07133168 7.55859375 66.421875 C3.93659222 63.42329052 0.46507546 60.27551675 -2.99609375 57.09375 C-4.99067928 55.32315536 -7.02878295 53.71215509 -9.1875 52.1484375 C-17.76252594 55.95734437 -24.79645783 63.64647502 -31.65625 69.8984375 C-35.16549486 73.01776626 -38.81912123 75.94592883 -42.46875 78.8984375 C-45.96658151 81.79319461 -49.30535404 84.84433289 -52.66015625 87.90234375 C-55.25712393 90.21031348 -57.92154013 92.40399613 -60.625 94.5859375 C-64.42837503 97.66180338 -68.08832652 100.83596916 -71.6875 104.1484375 C-76.1573512 108.26222659 -80.77794893 112.11931047 -85.50390625 115.93359375 C-88.13458557 118.10476577 -90.66692424 120.35085107 -93.1875 122.6484375 C-96.58348682 125.74398946 -100.04921531 128.69994957 -103.625 131.5859375 C-107.42837503 134.66180338 -111.08832652 137.83596916 -114.6875 141.1484375 C-119.1573512 145.26222659 -123.77794893 149.11931047 -128.50390625 152.93359375 C-131.13458557 155.10476577 -133.66692424 157.35085107 -136.1875 159.6484375 C-140.48741791 163.56735002 -144.94669547 167.24014619 -149.46875 170.8984375 C-152.96658151 173.79319461 -156.30535404 176.84433289 -159.66015625 179.90234375 C-162.25712393 182.21031348 -164.92154013 184.40399613 -167.625 186.5859375 C-171.42837503 189.66180338 -175.08832652 192.83596916 -178.6875 196.1484375 C-183.1573512 200.26222659 -187.77794893 204.11931047 -192.50390625 207.93359375 C-195.13458557 210.10476577 -197.66692424 212.35085107 -200.1875 214.6484375 C-221.03036579 233.59951452 -221.03036579 233.59951452 -234.37109375 233.421875 C-240.33913487 232.84245353 -244.45809709 230.22763253 -248.5 225.8984375 C-252.738552 220.43232673 -254.5046109 215.60565852 -254.1875 208.6484375 C-252.26067274 194.47944513 -238.316374 185.7765556 -227.90234375 177.39453125 C-225.08076505 175.0601316 -222.38159288 172.62853152 -219.6875 170.1484375 C-215.2176488 166.03464841 -210.59705107 162.17756453 -205.87109375 158.36328125 C-203.24041443 156.19210923 -200.70807576 153.94602393 -198.1875 151.6484375 C-193.88758209 147.72952498 -189.42830453 144.05672881 -184.90625 140.3984375 C-181.40841849 137.50368039 -178.06964596 134.45254211 -174.71484375 131.39453125 C-172.11787607 129.08656152 -169.45345987 126.89287887 -166.75 124.7109375 C-162.94662497 121.63507162 -159.28667348 118.46090584 -155.6875 115.1484375 C-151.2176488 111.03464841 -146.59705107 107.17756453 -141.87109375 103.36328125 C-139.24041443 101.19210923 -136.70807576 98.94602393 -134.1875 96.6484375 C-130.79151318 93.55288554 -127.32578469 90.59692543 -123.75 87.7109375 C-119.94662497 84.63507162 -116.28667348 81.46090584 -112.6875 78.1484375 C-108.2176488 74.03464841 -103.59705107 70.17756453 -98.87109375 66.36328125 C-96.24041443 64.19210923 -93.70807576 61.94602393 -91.1875 59.6484375 C-87.79151318 56.55288554 -84.32578469 53.59692543 -80.75 50.7109375 C-76.94662497 47.63507162 -73.28667348 44.46090584 -69.6875 41.1484375 C-65.2176488 37.03464841 -60.59705107 33.17756453 -55.87109375 29.36328125 C-53.24041443 27.19210923 -50.70807576 24.94602393 -48.1875 22.6484375 C-43.906479 18.75291128 -39.49845735 15.05760497 -34.9921875 11.42578125 C-33.0614597 9.8580733 -31.15092407 8.26527481 -29.2578125 6.65234375 C-27.83082031 5.44384766 -27.83082031 5.44384766 -26.375 4.2109375 C-25.52292969 3.48003906 -24.67085937 2.74914063 -23.79296875 1.99609375 C-17.04751717 -2.78741239 -7.5033148 -3.78639497 0 0 Z " fill="#000000" transform="translate(266.1875,30.8515625)"/>
<path d="M0 0 C3.75363743 2.2369571 6.82268362 5.01660434 10 8 C11.64466822 9.48046204 13.2905046 10.95962735 14.9375 12.4375 C15.7625 13.1903125 16.5875 13.943125 17.4375 14.71875 C20.04525525 17.04028821 22.72041144 19.24530355 25.4375 21.4375 C30.211403 25.29825137 34.73388428 29.37437075 39.25 33.53125 C41.93737634 35.94378104 44.68965444 38.2325621 47.5 40.5 C51.28460334 43.55348679 54.92207537 46.70668301 58.5 50 C62.9698512 54.11378909 67.59044893 57.97087297 72.31640625 61.78515625 C75.80550916 64.66480887 79.12996921 67.70693876 82.47265625 70.75390625 C85.06962393 73.06187598 87.73404013 75.25555863 90.4375 77.4375 C95.211403 81.29825137 99.73388428 85.37437075 104.25 89.53125 C106.93737634 91.94378104 109.68965444 94.2325621 112.5 96.5 C117.25595419 100.33719031 121.75504801 104.39385101 126.25 108.53125 C128.93737634 110.94378104 131.68965444 113.2325621 134.5 115.5 C138.28460334 118.55348679 141.92207537 121.70668301 145.5 125 C149.12044823 128.33163755 152.80280446 131.52678579 156.625 134.625 C160.14370633 137.47732292 163.63755186 140.34786489 167.0625 143.3125 C167.77535156 143.92738281 168.48820312 144.54226562 169.22265625 145.17578125 C173.43012028 149.49421136 173.28929051 153.80829851 173.26742554 159.60287476 C173.27195665 160.48002282 173.27648776 161.35717088 173.28115618 162.26089919 C173.29383589 165.20572433 173.29217751 168.15036538 173.29052734 171.09521484 C173.29651035 173.20427184 173.30331536 175.31332664 173.31088257 177.42237854 C173.32857257 183.15584444 173.3332392 188.88925067 173.33451414 194.62274122 C173.33641181 199.40663969 173.34376779 204.19052422 173.35085833 208.97441733 C173.36715115 220.25964476 173.37202645 231.54484028 173.37060547 242.83007812 C173.36940366 254.47715496 173.39051137 266.1240466 173.4220928 277.77107656 C173.4482304 287.7660816 173.45897383 297.76102605 173.45769465 307.75606501 C173.45718429 313.72769529 173.46290819 319.69916101 173.48405075 325.67075729 C173.50339076 331.28668089 173.5035865 336.90228224 173.48901749 342.51821709 C173.48692306 344.57977836 173.49166785 346.64135958 173.5037384 348.70288658 C173.51914701 351.51669093 173.50991169 354.32937811 173.49447632 357.14315796 C173.50476344 357.95950631 173.51505057 358.77585467 173.52564943 359.61694086 C173.46228003 364.8422173 172.53488582 367.90383831 169 372 C165.7234183 374.1104457 163.06926366 374.25198661 159.21466255 374.25726891 C158.02604406 374.2637178 156.83742556 374.27016669 155.61278832 374.276811 C154.30560998 374.2737138 152.99843165 374.2706166 151.65164185 374.26742554 C150.25003116 374.27116127 148.84842256 374.27576248 147.44681728 374.28115618 C143.59087943 374.29341111 139.73502818 374.2931228 135.87907529 374.29076743 C131.72219579 374.2903599 127.56534429 374.30139233 123.40847778 374.31088257 C115.26286112 374.327507 107.1172734 374.33299276 98.9716412 374.33410732 C92.35183655 374.33505708 85.73204146 374.33916373 79.11223984 374.34550858 C60.3515019 374.36312462 41.59078686 374.37234683 22.83004059 374.37084763 C21.81830005 374.37076772 20.8065595 374.3706878 19.76416016 374.37060547 C18.751187 374.37052371 17.73821385 374.37044195 16.69454454 374.37035771 C0.27383563 374.36954462 -16.14678159 374.38868713 -32.56746398 374.4168822 C-49.42063108 374.44559197 -66.27375343 374.45942356 -83.12694561 374.45769465 C-92.59175876 374.45703011 -102.05647579 374.46255055 -111.52126694 374.48405075 C-119.57914517 374.50223745 -127.6368837 374.50663058 -135.69477354 374.4930319 C-139.80693356 374.48648961 -143.91882537 374.48643026 -148.03096008 374.5037384 C-151.79503933 374.51941881 -155.5586366 374.5166576 -159.32270373 374.49917014 C-161.33025059 374.49462884 -163.3378121 374.50979695 -165.34530151 374.52564943 C-176.44832393 374.440109 -176.44832393 374.440109 -181 370 C-183.87572981 366.37471714 -183.28410742 361.81809727 -183.26742554 357.39712524 C-183.27195665 356.51997718 -183.27648776 355.64282912 -183.28115618 354.73910081 C-183.29383589 351.79427567 -183.29217751 348.84963462 -183.29052734 345.90478516 C-183.29651035 343.79572816 -183.30331536 341.68667336 -183.31088257 339.57762146 C-183.32857257 333.84415556 -183.3332392 328.11074933 -183.33451414 322.37725878 C-183.33641181 317.59336031 -183.34376779 312.80947578 -183.35085833 308.02558267 C-183.36715115 296.74035524 -183.37202645 285.45515972 -183.37060547 274.16992188 C-183.36940366 262.52284504 -183.39051137 250.8759534 -183.4220928 239.22892344 C-183.4482304 229.2339184 -183.45897383 219.23897395 -183.45769465 209.24393499 C-183.45718429 203.27230471 -183.46290819 197.30083899 -183.48405075 191.32924271 C-183.50339076 185.71331911 -183.5035865 180.09771776 -183.48901749 174.48178291 C-183.48692306 172.42022164 -183.49166785 170.35864042 -183.5037384 168.29711342 C-183.51914701 165.48330907 -183.50991169 162.67062189 -183.49447632 159.85684204 C-183.50476344 159.04049369 -183.51505057 158.22414533 -183.52564943 157.38305914 C-183.45207526 151.31632434 -181.64575613 147.7694121 -177.39111328 143.31591797 C-176.87274902 142.87908691 -176.35438477 142.44225586 -175.8203125 141.9921875 C-175.22863281 141.486875 -174.63695312 140.9815625 -174.02734375 140.4609375 C-173.39957031 139.93757812 -172.77179688 139.41421875 -172.125 138.875 C-171.46371094 138.31296875 -170.80242187 137.7509375 -170.12109375 137.171875 C-168.75154882 136.00841397 -167.37946337 134.847937 -166.00488281 133.69042969 C-162.98698694 131.1458716 -159.99463522 128.57184305 -157 126 C-155.84377036 125.01039288 -154.68752021 124.02080972 -153.53125 123.03125 C-149.84156423 119.8686622 -146.16984133 116.68557361 -142.5 113.5 C-137.10745021 108.8190444 -131.69553564 104.16164336 -126.26953125 99.51953125 C-121.99861157 95.8628562 -117.74593331 92.18564521 -113.5 88.5 C-108.10745021 83.8190444 -102.69553564 79.16164336 -97.26953125 74.51953125 C-92.99861157 70.8628562 -88.74593331 67.18564521 -84.5 63.5 C-79.10745021 58.8190444 -73.69553564 54.16164336 -68.26953125 49.51953125 C-63.99861157 45.8628562 -59.74593331 42.18564521 -55.5 38.5 C-50.11135767 33.82243624 -44.70507196 29.16638196 -39.28051758 24.53051758 C-35.54796459 21.33743308 -31.83818893 18.11958174 -28.1394043 14.88745117 C-25.64694581 12.71672091 -23.13839829 10.56505568 -20.62890625 8.4140625 C-19.20080706 7.17432172 -17.80101174 5.90213123 -16.40625 4.625 C-11.27510426 0.14428118 -6.81079767 -1.99391611 0 0 Z M-12.1875 32.1875 C-12.80753906 32.72632813 -13.42757812 33.26515625 -14.06640625 33.8203125 C-15.38246843 34.9645995 -16.69671088 36.11098222 -18.00927734 37.25927734 C-20.54390293 39.47559822 -23.08871927 41.68000531 -25.6340332 43.8840332 C-26.88703593 44.96916012 -28.13946963 46.05494441 -29.39135742 47.14135742 C-34.15423967 51.27419298 -38.93881348 55.38106164 -43.73046875 59.48046875 C-48.00138843 63.1371438 -52.25406669 66.81435479 -56.5 70.5 C-61.31924518 74.68330355 -66.15089536 78.85134439 -71 83 C-78.3622941 89.30001579 -85.68272422 95.64780541 -93 102 C-100.89068588 108.84997718 -108.79085299 115.68775898 -116.73071289 122.48071289 C-121.63248299 126.67741028 -126.50889683 130.90287162 -131.38134766 135.13354492 C-136.23246284 139.34276781 -141.10437268 143.52714067 -145.99414062 147.69140625 C-147.04257773 148.58675867 -148.07899775 149.49640748 -149.101861 150.42086792 C-151 152 -151 152 -153.2662344 153.38967896 C-157.55375581 156.34373613 -159.69724493 158.59977522 -160.8168354 163.77781677 C-161.22946725 168.66291038 -161.11389567 173.54493631 -161.02172852 178.44140625 C-161.01896939 180.35472957 -161.02017654 182.26806204 -161.02501583 184.18138123 C-161.02704295 189.29299097 -160.97498931 194.40269416 -160.91152191 199.51385498 C-160.86016119 204.31463445 -160.8578485 209.11495671 -160.85144043 213.91601562 C-160.80426595 227.94426173 -160.67861471 241.97215514 -160.5625 256 C-160.376875 287.35 -160.19125 318.7 -160 351 C-57.7 351 44.6 351 150 351 C150.37125 304.0678125 150.37125 304.0678125 150.75 256.1875 C150.85924805 246.31610107 150.96849609 236.44470215 151.08105469 226.27416992 C151.12119321 217.40881568 151.12119321 217.40881568 151.14532471 208.54341125 C151.15648555 204.60056684 151.20136442 200.65967 151.26690674 196.71736145 C151.34953295 191.68035827 151.37384163 186.64616579 151.35686731 181.60854781 C151.36041355 179.76506971 151.38403736 177.92148841 151.43058157 176.07859457 C151.89239413 165.62142521 151.89239413 165.62142521 147.43247223 156.55797768 C144.53977726 153.68736568 141.33343637 151.34118163 138 149 C136.13666968 147.49040794 134.28094881 145.9713072 132.4375 144.4375 C131.53902344 143.71433594 130.64054687 142.99117188 129.71484375 142.24609375 C126.89326505 139.9116941 124.19409288 137.48009402 121.5 135 C117.92207537 131.70668301 114.28460334 128.55348679 110.5 125.5 C105.74404581 121.66280969 101.24495199 117.60614899 96.75 113.46875 C94.06262366 111.05621896 91.31034556 108.7674379 88.5 106.5 C83.74404581 102.66280969 79.24495199 98.60614899 74.75 94.46875 C72.06262366 92.05621896 69.31034556 89.7674379 66.5 87.5 C61.74404581 83.66280969 57.24495199 79.60614899 52.75 75.46875 C50.06262366 73.05621896 47.31034556 70.7674379 44.5 68.5 C39.74404581 64.66280969 35.24495199 60.60614899 30.75 56.46875 C27.18950441 53.27239601 23.47734173 50.28826851 19.75390625 47.28515625 C16.89917867 44.91633975 14.1656079 42.45073583 11.4375 39.9375 C0.30965818 27.70081321 0.30965818 27.70081321 -12.1875 32.1875 Z " fill="#000000" transform="translate(261,109)"/>
</svg>
